<mxfile host="app.diagrams.net" modified="2023-06-15T07:06:53.986Z" agent="Mozilla/5.0 (Windows NT 10.0; Win64; x64; rv:102.0) Gecko/20100101 Firefox/102.0" etag="9cvyQbYRrt8FNVhnuN9z" version="21.4.0" type="github">
  <diagram name="Page-1" id="uHdn_N2mmKIZRqKjAIFP">
    <mxGraphModel dx="283" dy="759" grid="1" gridSize="10" guides="1" tooltips="1" connect="1" arrows="1" fold="1" page="1" pageScale="1" pageWidth="827" pageHeight="1169" math="0" shadow="0">
      <root>
        <mxCell id="0" />
        <mxCell id="1" parent="0" />
        <mxCell id="_MrD5w5YMZRL_ZuLPOxq-27" value="" style="group" vertex="1" connectable="0" parent="1">
          <mxGeometry x="120" y="320" width="190" height="190" as="geometry" />
        </mxCell>
        <mxCell id="_MrD5w5YMZRL_ZuLPOxq-35" style="rounded=0;orthogonalLoop=1;jettySize=auto;html=1;exitX=1;exitY=1;exitDx=0;exitDy=0;strokeColor=#FF0000;" edge="1" parent="_MrD5w5YMZRL_ZuLPOxq-27" source="_MrD5w5YMZRL_ZuLPOxq-1">
          <mxGeometry relative="1" as="geometry">
            <mxPoint x="40" y="40" as="targetPoint" />
          </mxGeometry>
        </mxCell>
        <mxCell id="_MrD5w5YMZRL_ZuLPOxq-1" value="H" style="rounded=0;whiteSpace=wrap;html=1;fillColor=#d5e8d4;strokeColor=#82b366;" vertex="1" parent="_MrD5w5YMZRL_ZuLPOxq-27">
          <mxGeometry width="30" height="30" as="geometry" />
        </mxCell>
        <mxCell id="_MrD5w5YMZRL_ZuLPOxq-2" value="6" style="rounded=0;whiteSpace=wrap;html=1;" vertex="1" parent="_MrD5w5YMZRL_ZuLPOxq-27">
          <mxGeometry x="40" width="30" height="30" as="geometry" />
        </mxCell>
        <mxCell id="_MrD5w5YMZRL_ZuLPOxq-3" value="5" style="rounded=0;whiteSpace=wrap;html=1;" vertex="1" parent="_MrD5w5YMZRL_ZuLPOxq-27">
          <mxGeometry x="80" width="30" height="30" as="geometry" />
        </mxCell>
        <mxCell id="_MrD5w5YMZRL_ZuLPOxq-39" style="rounded=0;orthogonalLoop=1;jettySize=auto;html=1;exitX=1;exitY=1;exitDx=0;exitDy=0;strokeColor=#FF0000;" edge="1" parent="_MrD5w5YMZRL_ZuLPOxq-27" source="_MrD5w5YMZRL_ZuLPOxq-4">
          <mxGeometry relative="1" as="geometry">
            <mxPoint x="160" y="40" as="targetPoint" />
          </mxGeometry>
        </mxCell>
        <mxCell id="_MrD5w5YMZRL_ZuLPOxq-4" value="4" style="rounded=0;whiteSpace=wrap;html=1;" vertex="1" parent="_MrD5w5YMZRL_ZuLPOxq-27">
          <mxGeometry x="120" width="30" height="30" as="geometry" />
        </mxCell>
        <mxCell id="_MrD5w5YMZRL_ZuLPOxq-5" value="4" style="rounded=0;whiteSpace=wrap;html=1;" vertex="1" parent="_MrD5w5YMZRL_ZuLPOxq-27">
          <mxGeometry x="160" width="30" height="30" as="geometry" />
        </mxCell>
        <mxCell id="_MrD5w5YMZRL_ZuLPOxq-29" style="edgeStyle=orthogonalEdgeStyle;rounded=0;orthogonalLoop=1;jettySize=auto;html=1;exitX=0.5;exitY=1;exitDx=0;exitDy=0;entryX=0.5;entryY=0;entryDx=0;entryDy=0;" edge="1" parent="_MrD5w5YMZRL_ZuLPOxq-27" source="_MrD5w5YMZRL_ZuLPOxq-7" target="_MrD5w5YMZRL_ZuLPOxq-12">
          <mxGeometry relative="1" as="geometry" />
        </mxCell>
        <mxCell id="_MrD5w5YMZRL_ZuLPOxq-48" style="rounded=0;orthogonalLoop=1;jettySize=auto;html=1;exitX=1;exitY=1;exitDx=0;exitDy=0;strokeColor=#0000FF;" edge="1" parent="_MrD5w5YMZRL_ZuLPOxq-27" source="_MrD5w5YMZRL_ZuLPOxq-7">
          <mxGeometry relative="1" as="geometry">
            <mxPoint x="40" y="80" as="targetPoint" />
          </mxGeometry>
        </mxCell>
        <mxCell id="_MrD5w5YMZRL_ZuLPOxq-7" value="6" style="rounded=0;whiteSpace=wrap;html=1;" vertex="1" parent="_MrD5w5YMZRL_ZuLPOxq-27">
          <mxGeometry y="40" width="30" height="30" as="geometry" />
        </mxCell>
        <mxCell id="_MrD5w5YMZRL_ZuLPOxq-36" style="edgeStyle=orthogonalEdgeStyle;rounded=0;orthogonalLoop=1;jettySize=auto;html=1;exitX=1;exitY=0.5;exitDx=0;exitDy=0;entryX=0;entryY=0.5;entryDx=0;entryDy=0;" edge="1" parent="_MrD5w5YMZRL_ZuLPOxq-27" source="_MrD5w5YMZRL_ZuLPOxq-8" target="_MrD5w5YMZRL_ZuLPOxq-9">
          <mxGeometry relative="1" as="geometry" />
        </mxCell>
        <mxCell id="_MrD5w5YMZRL_ZuLPOxq-8" value="6" style="rounded=0;whiteSpace=wrap;html=1;" vertex="1" parent="_MrD5w5YMZRL_ZuLPOxq-27">
          <mxGeometry x="40" y="40" width="30" height="30" as="geometry" />
        </mxCell>
        <mxCell id="_MrD5w5YMZRL_ZuLPOxq-37" style="rounded=0;orthogonalLoop=1;jettySize=auto;html=1;exitX=1;exitY=0;exitDx=0;exitDy=0;entryX=0;entryY=1;entryDx=0;entryDy=0;strokeColor=#FF0000;" edge="1" parent="_MrD5w5YMZRL_ZuLPOxq-27" source="_MrD5w5YMZRL_ZuLPOxq-9" target="_MrD5w5YMZRL_ZuLPOxq-4">
          <mxGeometry relative="1" as="geometry" />
        </mxCell>
        <mxCell id="_MrD5w5YMZRL_ZuLPOxq-9" value="5" style="rounded=0;whiteSpace=wrap;html=1;" vertex="1" parent="_MrD5w5YMZRL_ZuLPOxq-27">
          <mxGeometry x="80" y="40" width="30" height="30" as="geometry" />
        </mxCell>
        <mxCell id="_MrD5w5YMZRL_ZuLPOxq-10" value="" style="rounded=0;whiteSpace=wrap;html=1;fillStyle=hatch;fillColor=#000000;" vertex="1" parent="_MrD5w5YMZRL_ZuLPOxq-27">
          <mxGeometry x="120" y="40" width="30" height="30" as="geometry" />
        </mxCell>
        <mxCell id="_MrD5w5YMZRL_ZuLPOxq-40" style="edgeStyle=orthogonalEdgeStyle;rounded=0;orthogonalLoop=1;jettySize=auto;html=1;exitX=0.5;exitY=1;exitDx=0;exitDy=0;strokeColor=#FF0000;" edge="1" parent="_MrD5w5YMZRL_ZuLPOxq-27" source="_MrD5w5YMZRL_ZuLPOxq-11">
          <mxGeometry relative="1" as="geometry">
            <mxPoint x="175.09523809523807" y="80" as="targetPoint" />
          </mxGeometry>
        </mxCell>
        <mxCell id="_MrD5w5YMZRL_ZuLPOxq-11" value="3" style="rounded=0;whiteSpace=wrap;html=1;" vertex="1" parent="_MrD5w5YMZRL_ZuLPOxq-27">
          <mxGeometry x="160" y="40" width="30" height="30" as="geometry" />
        </mxCell>
        <mxCell id="_MrD5w5YMZRL_ZuLPOxq-30" style="edgeStyle=orthogonalEdgeStyle;rounded=0;orthogonalLoop=1;jettySize=auto;html=1;exitX=0.5;exitY=1;exitDx=0;exitDy=0;entryX=0.5;entryY=0;entryDx=0;entryDy=0;" edge="1" parent="_MrD5w5YMZRL_ZuLPOxq-27" source="_MrD5w5YMZRL_ZuLPOxq-12" target="_MrD5w5YMZRL_ZuLPOxq-17">
          <mxGeometry relative="1" as="geometry" />
        </mxCell>
        <mxCell id="_MrD5w5YMZRL_ZuLPOxq-12" value="5" style="rounded=0;whiteSpace=wrap;html=1;" vertex="1" parent="_MrD5w5YMZRL_ZuLPOxq-27">
          <mxGeometry y="80" width="30" height="30" as="geometry" />
        </mxCell>
        <mxCell id="_MrD5w5YMZRL_ZuLPOxq-49" style="rounded=0;orthogonalLoop=1;jettySize=auto;html=1;exitX=0;exitY=1;exitDx=0;exitDy=0;entryX=1;entryY=0;entryDx=0;entryDy=0;strokeColor=#0000FF;" edge="1" parent="_MrD5w5YMZRL_ZuLPOxq-27" source="_MrD5w5YMZRL_ZuLPOxq-13" target="_MrD5w5YMZRL_ZuLPOxq-17">
          <mxGeometry relative="1" as="geometry" />
        </mxCell>
        <mxCell id="_MrD5w5YMZRL_ZuLPOxq-13" value="5" style="rounded=0;whiteSpace=wrap;html=1;" vertex="1" parent="_MrD5w5YMZRL_ZuLPOxq-27">
          <mxGeometry x="40" y="80" width="30" height="30" as="geometry" />
        </mxCell>
        <mxCell id="_MrD5w5YMZRL_ZuLPOxq-14" value="6" style="rounded=0;whiteSpace=wrap;html=1;" vertex="1" parent="_MrD5w5YMZRL_ZuLPOxq-27">
          <mxGeometry x="80" y="80" width="30" height="30" as="geometry" />
        </mxCell>
        <mxCell id="_MrD5w5YMZRL_ZuLPOxq-15" value="" style="rounded=0;whiteSpace=wrap;html=1;fillStyle=hatch;fillColor=#000000;" vertex="1" parent="_MrD5w5YMZRL_ZuLPOxq-27">
          <mxGeometry x="120" y="80" width="30" height="30" as="geometry" />
        </mxCell>
        <mxCell id="_MrD5w5YMZRL_ZuLPOxq-41" style="edgeStyle=orthogonalEdgeStyle;rounded=0;orthogonalLoop=1;jettySize=auto;html=1;exitX=0.5;exitY=1;exitDx=0;exitDy=0;entryX=0.5;entryY=0;entryDx=0;entryDy=0;strokeColor=#FF0000;" edge="1" parent="_MrD5w5YMZRL_ZuLPOxq-27" source="_MrD5w5YMZRL_ZuLPOxq-16" target="_MrD5w5YMZRL_ZuLPOxq-21">
          <mxGeometry relative="1" as="geometry" />
        </mxCell>
        <mxCell id="_MrD5w5YMZRL_ZuLPOxq-16" value="2" style="rounded=0;whiteSpace=wrap;html=1;" vertex="1" parent="_MrD5w5YMZRL_ZuLPOxq-27">
          <mxGeometry x="160" y="80" width="30" height="30" as="geometry" />
        </mxCell>
        <mxCell id="_MrD5w5YMZRL_ZuLPOxq-31" style="rounded=0;orthogonalLoop=1;jettySize=auto;html=1;exitX=1;exitY=1;exitDx=0;exitDy=0;entryX=0;entryY=0;entryDx=0;entryDy=0;" edge="1" parent="_MrD5w5YMZRL_ZuLPOxq-27" source="_MrD5w5YMZRL_ZuLPOxq-17" target="_MrD5w5YMZRL_ZuLPOxq-23">
          <mxGeometry relative="1" as="geometry" />
        </mxCell>
        <mxCell id="_MrD5w5YMZRL_ZuLPOxq-17" value="4" style="rounded=0;whiteSpace=wrap;html=1;" vertex="1" parent="_MrD5w5YMZRL_ZuLPOxq-27">
          <mxGeometry y="120" width="30" height="30" as="geometry" />
        </mxCell>
        <mxCell id="_MrD5w5YMZRL_ZuLPOxq-18" value="" style="rounded=0;whiteSpace=wrap;html=1;fillStyle=hatch;fillColor=#000000;" vertex="1" parent="_MrD5w5YMZRL_ZuLPOxq-27">
          <mxGeometry x="40" y="120" width="30" height="30" as="geometry" />
        </mxCell>
        <mxCell id="_MrD5w5YMZRL_ZuLPOxq-19" value="" style="rounded=0;whiteSpace=wrap;html=1;fillStyle=hatch;fillColor=#000000;" vertex="1" parent="_MrD5w5YMZRL_ZuLPOxq-27">
          <mxGeometry x="80" y="120" width="30" height="30" as="geometry" />
        </mxCell>
        <mxCell id="_MrD5w5YMZRL_ZuLPOxq-20" value="" style="rounded=0;whiteSpace=wrap;html=1;fillStyle=hatch;fillColor=#000000;" vertex="1" parent="_MrD5w5YMZRL_ZuLPOxq-27">
          <mxGeometry x="120" y="120" width="30" height="30" as="geometry" />
        </mxCell>
        <mxCell id="_MrD5w5YMZRL_ZuLPOxq-42" style="edgeStyle=orthogonalEdgeStyle;rounded=0;orthogonalLoop=1;jettySize=auto;html=1;exitX=0.5;exitY=1;exitDx=0;exitDy=0;entryX=0.5;entryY=0;entryDx=0;entryDy=0;strokeColor=#FF0000;" edge="1" parent="_MrD5w5YMZRL_ZuLPOxq-27" source="_MrD5w5YMZRL_ZuLPOxq-21" target="_MrD5w5YMZRL_ZuLPOxq-26">
          <mxGeometry relative="1" as="geometry" />
        </mxCell>
        <mxCell id="_MrD5w5YMZRL_ZuLPOxq-21" value="1" style="rounded=0;whiteSpace=wrap;html=1;" vertex="1" parent="_MrD5w5YMZRL_ZuLPOxq-27">
          <mxGeometry x="160" y="120" width="30" height="30" as="geometry" />
        </mxCell>
        <mxCell id="_MrD5w5YMZRL_ZuLPOxq-22" value="4" style="rounded=0;whiteSpace=wrap;html=1;" vertex="1" parent="_MrD5w5YMZRL_ZuLPOxq-27">
          <mxGeometry y="160" width="30" height="30" as="geometry" />
        </mxCell>
        <mxCell id="_MrD5w5YMZRL_ZuLPOxq-32" style="edgeStyle=orthogonalEdgeStyle;rounded=0;orthogonalLoop=1;jettySize=auto;html=1;exitX=1;exitY=0.5;exitDx=0;exitDy=0;entryX=0;entryY=0.5;entryDx=0;entryDy=0;" edge="1" parent="_MrD5w5YMZRL_ZuLPOxq-27" source="_MrD5w5YMZRL_ZuLPOxq-23" target="_MrD5w5YMZRL_ZuLPOxq-24">
          <mxGeometry relative="1" as="geometry" />
        </mxCell>
        <mxCell id="_MrD5w5YMZRL_ZuLPOxq-23" value="3" style="rounded=0;whiteSpace=wrap;html=1;" vertex="1" parent="_MrD5w5YMZRL_ZuLPOxq-27">
          <mxGeometry x="40" y="160" width="30" height="30" as="geometry" />
        </mxCell>
        <mxCell id="_MrD5w5YMZRL_ZuLPOxq-33" style="edgeStyle=orthogonalEdgeStyle;rounded=0;orthogonalLoop=1;jettySize=auto;html=1;exitX=1;exitY=0.5;exitDx=0;exitDy=0;entryX=0;entryY=0.5;entryDx=0;entryDy=0;" edge="1" parent="_MrD5w5YMZRL_ZuLPOxq-27" source="_MrD5w5YMZRL_ZuLPOxq-24" target="_MrD5w5YMZRL_ZuLPOxq-25">
          <mxGeometry relative="1" as="geometry" />
        </mxCell>
        <mxCell id="_MrD5w5YMZRL_ZuLPOxq-24" value="2" style="rounded=0;whiteSpace=wrap;html=1;" vertex="1" parent="_MrD5w5YMZRL_ZuLPOxq-27">
          <mxGeometry x="80" y="160" width="30" height="30" as="geometry" />
        </mxCell>
        <mxCell id="_MrD5w5YMZRL_ZuLPOxq-34" style="edgeStyle=orthogonalEdgeStyle;rounded=0;orthogonalLoop=1;jettySize=auto;html=1;exitX=1;exitY=0.5;exitDx=0;exitDy=0;" edge="1" parent="_MrD5w5YMZRL_ZuLPOxq-27" source="_MrD5w5YMZRL_ZuLPOxq-25">
          <mxGeometry relative="1" as="geometry">
            <mxPoint x="160" y="174.80952380952385" as="targetPoint" />
          </mxGeometry>
        </mxCell>
        <mxCell id="_MrD5w5YMZRL_ZuLPOxq-25" value="1" style="rounded=0;whiteSpace=wrap;html=1;" vertex="1" parent="_MrD5w5YMZRL_ZuLPOxq-27">
          <mxGeometry x="120" y="160" width="30" height="30" as="geometry" />
        </mxCell>
        <mxCell id="_MrD5w5YMZRL_ZuLPOxq-26" value="S" style="rounded=0;whiteSpace=wrap;html=1;fillColor=#f8cecc;strokeColor=#b85450;" vertex="1" parent="_MrD5w5YMZRL_ZuLPOxq-27">
          <mxGeometry x="160" y="160" width="30" height="30" as="geometry" />
        </mxCell>
        <mxCell id="_MrD5w5YMZRL_ZuLPOxq-43" style="rounded=0;orthogonalLoop=1;jettySize=auto;html=1;exitX=1;exitY=0.5;exitDx=0;exitDy=0;entryX=0;entryY=0.5;entryDx=0;entryDy=0;strokeColor=#FF0000;" edge="1" parent="_MrD5w5YMZRL_ZuLPOxq-27">
          <mxGeometry relative="1" as="geometry">
            <mxPoint x="70" y="54.75999999999999" as="sourcePoint" />
            <mxPoint x="80" y="54.75999999999999" as="targetPoint" />
          </mxGeometry>
        </mxCell>
        <mxCell id="_MrD5w5YMZRL_ZuLPOxq-28" value="" style="endArrow=classic;html=1;rounded=0;exitX=0.5;exitY=1;exitDx=0;exitDy=0;" edge="1" parent="1" source="_MrD5w5YMZRL_ZuLPOxq-1">
          <mxGeometry width="50" height="50" relative="1" as="geometry">
            <mxPoint x="240" y="830" as="sourcePoint" />
            <mxPoint x="135" y="360" as="targetPoint" />
          </mxGeometry>
        </mxCell>
      </root>
    </mxGraphModel>
  </diagram>
</mxfile>
